<svg width="500" height="400" viewBox="0 0 500 400" xmlns="http://www.w3.org/2000/svg">
  <defs>
    <linearGradient id="grad1" x1="0%" y1="0%" x2="100%" y2="100%">
      <stop offset="0%" stop-color="#667eea"/>
      <stop offset="100%" stop-color="#764ba2"/>
    </linearGradient>
  </defs>
  <rect width="500" height="400" fill="#f8f9fa"/>
  <rect x="50" y="50" width="400" height="300" rx="20" fill="white" stroke="#667eea" stroke-width="2"/>
  
  <!-- Brain/Neural Network -->
  <path d="M200,150 Q250,120 300,150 Q350,180 300,210 Q250,240 200,210 Q150,180 200,150" fill="none" stroke="#667eea" stroke-width="3"/>
  <circle cx="200" cy="150" r="8" fill="#667eea"/>
  <circle cx="300" cy="150" r="8" fill="#667eea"/>
  <circle cx="250" cy="120" r="8" fill="#667eea"/>
  <circle cx="250" cy="240" r="8" fill="#667eea"/>
  <circle cx="200" cy="210" r="8" fill="#667eea"/>
  <circle cx="300" cy="210" r="8" fill="#667eea"/>
  
  <!-- Text Elements -->
  <text x="250" y="80" text-anchor="middle" font-family="Arial" font-size="24" fill="#2c3e50" font-weight="bold">GPT-4</text>
  <text x="250" y="320" text-anchor="middle" font-family="Arial" font-size="16" fill="#666">Language Understanding</text>
  
  <!-- Floating text bubbles -->
  <rect x="100" y="180" width="80" height="30" rx="15" fill="#e3f2fd" stroke="#667eea"/>
  <text x="140" y="200" text-anchor="middle" font-family="Arial" font-size="12" fill="#2c3e50">Hello</text>
  
  <rect x="320" y="180" width="80" height="30" rx="15" fill="#e8f5e8" stroke="#4caf50"/>
  <text x="360" y="200" text-anchor="middle" font-family="Arial" font-size="12" fill="#2c3e50">Response</text>
  
  <!-- Code brackets -->
  <text x="250" y="260" text-anchor="middle" font-family="monospace" font-size="20" fill="#667eea">{ }</text>
</svg>
